<svg width="42" height="43" viewBox="0 0 42 43" fill="none" xmlns="http://www.w3.org/2000/svg">
<path d="M40.9521 41.4913C41.5346 40.8954 41.5346 39.9434 40.9521 39.3475L36.0136 34.2959C32.8995 31.1106 32.9444 26.0804 33.9591 21.7429C34.3493 20.0752 34.4952 18.3427 34.379 16.6018C34.0862 12.2135 32.1506 8.10956 28.9751 5.14382C25.7995 2.17807 21.6283 0.578815 17.3293 0.678731C13.0304 0.778648 8.93455 2.57005 5.89393 5.68027C2.85331 8.79049 1.102 12.9801 1.00432 17.3775C0.906635 21.7748 2.47011 26.0415 5.36948 29.2897C8.26886 32.538 12.2809 34.5179 16.571 34.8174C18.2389 34.9339 19.8989 34.7929 21.4992 34.4116C25.7813 33.3913 30.7914 33.3411 33.8687 36.4888L38.7592 41.4913C39.3607 42.1065 40.3506 42.1065 40.9521 41.4913ZM4.08725 17.7932C4.08725 15.032 4.88773 12.3328 6.38745 10.0369C7.88718 7.74105 10.0188 5.95163 12.5128 4.89495C15.0067 3.83828 17.751 3.5618 20.3985 4.10049C23.0461 4.63918 25.4781 5.96884 27.3868 7.92132C29.2956 9.8738 30.5955 12.3614 31.1222 15.0696C31.6488 17.7778 31.3785 20.5849 30.3455 23.1359C29.3125 25.6869 27.5631 27.8673 25.3186 29.4014C23.0741 30.9355 20.4353 31.7543 17.7358 31.7543C14.1172 31.7502 10.648 30.2779 8.08926 27.6606C5.53053 25.0433 4.09126 21.4947 4.08725 17.7932Z" fill="#979797" stroke="#979797"/>
</svg>
